<?xml version="1.0" ?><!DOCTYPE svg  PUBLIC '-//W3C//DTD SVG 1.1//EN'  'http://www.w3.org/Graphics/SVG/1.1/DTD/svg11.dtd'><svg enable-background="new 0 0 24 24" height="24px" id="Layer_1" version="1.1" viewBox="0 0 24 24" width="24px" xml:space="preserve" xmlns="http://www.w3.org/2000/svg" xmlns:xlink="http://www.w3.org/1999/xlink"><g><path d="M12,1c6.064,0,11,4.936,11,11s-4.936,11-11,11C5.935,23,1,18.064,1,12S5.935,1,12,1 M12,0C5.373,0,0,5.373,0,12   s5.373,12,12,12s12-5.373,12-12S18.627,0,12,0L12,0z"/><path d="M17,22.5c-0.262,0-0.482-0.204-0.499-0.469C16.044,14.718,12.563,7.145,7.188,1.77c-0.195-0.194-0.195-0.513,0-0.707   s0.512-0.194,0.707,0c5.542,5.543,9.132,13.355,9.604,20.904c0.017,0.275-0.192,0.514-0.468,0.53C17.021,22.5,17.01,22.5,17,22.5z"/><path d="M1,11.063c-0.276,0-0.5-0.224-0.5-0.5c0-0.274,0.224-0.5,0.5-0.5c6.742,0,15.438-1.097,18.57-6.317   c0.143-0.237,0.451-0.315,0.687-0.173c0.237,0.143,0.313,0.448,0.171,0.687C17.055,9.882,8,11.063,1,11.063z"/><path d="M4.687,21.042c-0.084,0-0.169-0.021-0.248-0.065c-0.24-0.138-0.323-0.441-0.186-0.683   c4.227-7.397,12.931-9.756,18.905-7.769c0.262,0.088,0.402,0.371,0.316,0.633c-0.088,0.262-0.369,0.404-0.633,0.314   c-5.589-1.861-13.747,0.364-17.72,7.315C5.029,20.951,4.861,21.042,4.687,21.042z"/></g></svg>